<svg xmlns="http://www.w3.org/2000/svg" viewBox="0 0 412.45 587.59"><defs><style>.cls-1,.cls-2{fill:none;stroke:#fff;stroke-miterlimit:10;stroke-width:6px;}.cls-2{stroke-linecap:round;}</style></defs><g id="Layer_2" data-name="Layer 2"><path class="cls-1" d="M292.65,23.79s11.94,1.19,13.73,5.37A7.94,7.94,0,0,0,311.63,34s1.34,8.49-.54,11.62-1.87,2.15-1.87,2.15V164.93s3,8.5,9.74,12.16,25.58,25.4,25.58,25.4,3.94,5.82,3.49,19.77,0,32.55,0,32.55V519.27s-.4,8.59-7.37,9.12-48.05,0-48.05,0"/><path class="cls-1" d="M293,23.79S281.09,25,279.3,29.16A7.94,7.94,0,0,1,274.05,34s-1.34,8.49.54,11.62,1.87,2.15,1.87,2.15V164.93s-3,8.5-9.74,12.16-25.58,25.4-25.58,25.4-3.94,5.82-3.49,19.77,0,32.55,0,32.55V519.27s.4,8.59,7.37,9.12,48,0,48,0"/></g><g id="Layer_3" data-name="Layer 3"><path class="cls-1" d="M142.64,286.47H90.22s-19.65,55-3,78.2,46.3,36.69,46.3,36.69l2.21.4s-.27,4.61,4,4.75L139,488.62s-5.51,15.93-10.33,19.54"/><path class="cls-2" d="M133.94,500.6s-29.27,10.29-34.24,16.07,42.94,12,42.94,12"/><path class="cls-1" d="M142.64,286.47h52.43s19.65,55,3.05,78.2-46.3,36.69-46.3,36.69l-2.21.4s.27,4.61-4,4.75l.69,82.11s5.51,15.93,10.32,19.54"/><path class="cls-2" d="M151.35,500.6s29.27,10.29,34.24,16.07-43.28,12-43.28,12"/></g></svg>