<svg id="Layer_2" data-name="Layer 2" xmlns="http://www.w3.org/2000/svg" viewBox="0 0 432.83 561.72"><defs><style>.cls-1{fill:none;stroke:#fff;stroke-miterlimit:10;stroke-width:6px;}</style></defs><path class="cls-1" d="M311.05,212.37h37.63S393.58,330.55,329.86,392c0,0-23.43,94.09-1.65,114.55,0,0,9.6,12.55,35.83,11.89s13.89,7.92,13.89,7.92H311.05"/><path class="cls-1" d="M318.32,212.37H280.68S235.78,330.55,299.5,392c0,0,23.44,94.09,1.65,114.55,0,0-9.6,12.55-35.83,11.89S252,526.32,252,526.32h66.37"/><path class="cls-1" d="M149.18,46.59s29.19-.79,30.77,14.2,0,51.67,0,51.67-6.71,10.25-6.71,17.35-1.57,99.39,24.85,137.65,31.55,96.63,31.55,96.63-3.15,135.68-11,149.48-32.34,12.75-32.34,12.75l-37.08,0"/><path class="cls-1" d="M152.38,46.59s-29.19-.79-30.76,14.2,0,51.67,0,51.67,6.7,10.25,6.7,17.35,1.58,99.39-24.85,137.65-31.55,96.63-31.55,96.63,3.16,135.68,11,149.48,32.35,12.75,32.35,12.75l37.07,0"/></svg>